<svg width="1280" height="720" xmlns="http://www.w3.org/2000/svg" xmlns:xlink="http://www.w3.org/1999/xlink" overflow="hidden"><g><rect x="0" y="0" width="1280" height="720" fill="#FFFFFF"/><rect x="89" y="288" width="115" height="42" stroke="#042433" stroke-width="2" stroke-miterlimit="8" fill="none"/><text fill="#FFFFFF" font-family="Yu Gothic,Yu Gothic_MSFontService,sans-serif" font-weight="400" font-size="24" transform="translate(134.267 317)">ｖ</text><rect x="89" y="109" width="115" height="41" stroke="#042433" stroke-width="2" stroke-miterlimit="8" fill="none"/><rect x="89" y="198" width="115" height="42" stroke="#042433" stroke-width="2" stroke-miterlimit="8" fill="none"/><rect x="89" y="19" width="115" height="42" stroke="#042433" stroke-width="2" stroke-miterlimit="8" fill="none"/><rect x="89" y="378" width="115" height="42" stroke="#042433" stroke-width="2" stroke-miterlimit="8" fill="none"/><rect x="89" y="468" width="115" height="42" stroke="#042433" stroke-width="2" stroke-miterlimit="8" fill="none"/><rect x="89" y="558" width="115" height="42" stroke="#042433" stroke-width="2" stroke-miterlimit="8" fill="none"/><rect x="89" y="648" width="115" height="42" stroke="#042433" stroke-width="2" stroke-miterlimit="8" fill="none"/><path d="M204 40 310.667 40.0001" stroke="#000000" stroke-width="2" stroke-miterlimit="8" fill="none" fill-rule="evenodd"/><path d="M204 129 310.667 129" stroke="#000000" stroke-width="2" stroke-miterlimit="8" fill="none" fill-rule="evenodd"/><path d="M204 219 310.667 219" stroke="#000000" stroke-width="2" stroke-miterlimit="8" fill="none" fill-rule="evenodd"/><path d="M204 309 310.667 309" stroke="#000000" stroke-width="2" stroke-miterlimit="8" fill="none" fill-rule="evenodd"/><path d="M204 399 310.667 399" stroke="#000000" stroke-width="2" stroke-miterlimit="8" fill="none" fill-rule="evenodd"/><path d="M204 489 310.667 489" stroke="#000000" stroke-width="2" stroke-miterlimit="8" fill="none" fill-rule="evenodd"/><path d="M204 579 310.667 579" stroke="#000000" stroke-width="2" stroke-miterlimit="8" fill="none" fill-rule="evenodd"/><path d="M204 669 310.667 669" stroke="#000000" stroke-width="2" stroke-miterlimit="8" fill="none" fill-rule="evenodd"/><path d="M310 40 310 129.867" stroke="#000000" stroke-width="2" stroke-miterlimit="8" fill="none" fill-rule="evenodd"/><path d="M310 85 416.667 85.0001" stroke="#000000" stroke-width="2" stroke-miterlimit="8" fill="none" fill-rule="evenodd"/><path d="M310 219 310 308.867" stroke="#000000" stroke-width="2" stroke-miterlimit="8" fill="none" fill-rule="evenodd"/><path d="M310 264 416.667 264" stroke="#000000" stroke-width="2" stroke-miterlimit="8" fill="none" fill-rule="evenodd"/><path d="M310 398 310 487.867" stroke="#000000" stroke-width="2" stroke-miterlimit="8" fill="none" fill-rule="evenodd"/><path d="M310 443 416.667 443" stroke="#000000" stroke-width="2" stroke-miterlimit="8" fill="none" fill-rule="evenodd"/><path d="M310 578 310 667.867" stroke="#000000" stroke-width="2" stroke-miterlimit="8" fill="none" fill-rule="evenodd"/><path d="M310 623 416.667 623" stroke="#000000" stroke-width="2" stroke-miterlimit="8" fill="none" fill-rule="evenodd"/><rect x="417" y="64" width="115" height="41" stroke="#042433" stroke-width="2" stroke-miterlimit="8" fill="none"/><text fill="#FFFFFF" font-family="Yu Gothic,Yu Gothic_MSFontService,sans-serif" font-weight="400" font-size="24" transform="translate(462.533 92)">ｖ</text><rect x="417" y="242" width="115" height="42" stroke="#042433" stroke-width="2" stroke-miterlimit="8" fill="none"/><text fill="#FFFFFF" font-family="Yu Gothic,Yu Gothic_MSFontService,sans-serif" font-weight="400" font-size="24" transform="translate(462.533 271)">ｖ</text><rect x="417" y="421" width="115" height="42" stroke="#042433" stroke-width="2" stroke-miterlimit="8" fill="none"/><text fill="#FFFFFF" font-family="Yu Gothic,Yu Gothic_MSFontService,sans-serif" font-weight="400" font-size="24" transform="translate(462.533 450)">ｖ</text><rect x="417" y="602" width="115" height="41" stroke="#042433" stroke-width="2" stroke-miterlimit="8" fill="none"/><text fill="#FFFFFF" font-family="Yu Gothic,Yu Gothic_MSFontService,sans-serif" font-weight="400" font-size="24" transform="translate(462.533 630)">ｖ</text><path d="M532 85 638.667 85.0001" stroke="#000000" stroke-width="2" stroke-miterlimit="8" fill="none" fill-rule="evenodd"/><path d="M532 263 638.667 263" stroke="#000000" stroke-width="2" stroke-miterlimit="8" fill="none" fill-rule="evenodd"/><path d="M532 442 638.667 442" stroke="#000000" stroke-width="2" stroke-miterlimit="8" fill="none" fill-rule="evenodd"/><path d="M532 623 638.667 623" stroke="#000000" stroke-width="2" stroke-miterlimit="8" fill="none" fill-rule="evenodd"/><path d="M639 84 639 264.083" stroke="#000000" stroke-width="2" stroke-miterlimit="8" fill="none" fill-rule="evenodd"/><path d="M639 442 639 622.083" stroke="#000000" stroke-width="2" stroke-miterlimit="8" fill="none" fill-rule="evenodd"/><path d="M639 174 745.667 174" stroke="#000000" stroke-width="2" stroke-miterlimit="8" fill="none" fill-rule="evenodd"/><path d="M639 533 745.667 533" stroke="#000000" stroke-width="2" stroke-miterlimit="8" fill="none" fill-rule="evenodd"/><path d="M966 173 966 532.2" stroke="#000000" stroke-width="2" stroke-miterlimit="8" fill="none" fill-rule="evenodd"/><rect x="745" y="152" width="115" height="42" stroke="#042433" stroke-width="2" stroke-miterlimit="8" fill="none"/><text fill="#FFFFFF" font-family="Yu Gothic,Yu Gothic_MSFontService,sans-serif" font-weight="400" font-size="24" transform="translate(790.8 181)">ｖ</text><rect x="745" y="512" width="115" height="42" stroke="#042433" stroke-width="2" stroke-miterlimit="8" fill="none"/><text fill="#FFFFFF" font-family="Yu Gothic,Yu Gothic_MSFontService,sans-serif" font-weight="400" font-size="24" transform="translate(790.8 541)">ｖ</text><path d="M860 533 966.667 533" stroke="#000000" stroke-width="2" stroke-miterlimit="8" fill="none" fill-rule="evenodd"/><path d="M860 174 966.667 174" stroke="#000000" stroke-width="2" stroke-miterlimit="8" fill="none" fill-rule="evenodd"/><path d="M966 352 1072.67 352" stroke="#000000" stroke-width="2" stroke-miterlimit="8" fill="none" fill-rule="evenodd"/><rect x="1073" y="331" width="115" height="42" stroke="#042433" stroke-width="2" stroke-miterlimit="8" fill="none"/><text fill="#FFFFFF" font-family="Yu Gothic,Yu Gothic_MSFontService,sans-serif" font-weight="400" font-size="24" transform="translate(1118.07 360)"></text></g></svg>